<svg xmlns="http://www.w3.org/2000/svg" width="36" height="36" viewBox="0 0 36 36">
  <path id="Icon_awesome-temperature-high" data-name="Icon awesome-temperature-high" d="M29.25,0A6.75,6.75,0,1,0,36,6.75,6.761,6.761,0,0,0,29.25,0Zm0,9A2.25,2.25,0,1,1,31.5,6.75,2.248,2.248,0,0,1,29.25,9ZM18,7.875a7.875,7.875,0,0,0-15.75,0V19.582a10.107,10.107,0,1,0,18,6.293A10.034,10.034,0,0,0,18,19.582ZM10.125,31.5A5.616,5.616,0,0,1,6.75,21.389V7.875a3.375,3.375,0,0,1,6.75,0V21.389A5.616,5.616,0,0,1,10.125,31.5Zm1.125-8.8V7.875a1.125,1.125,0,0,0-2.25,0V22.7a3.375,3.375,0,1,0,2.25,0Z" fill="#dff6ff"/>
</svg>
