<svg xmlns="http://www.w3.org/2000/svg" width="27.024" height="27.024" viewBox="0 0 27.024 27.024">
  <path id="Icon_weather-wind-deg" data-name="Icon weather-wind-deg" d="M4.488,17.4a13.249,13.249,0,0,1,1.824-6.792,13.5,13.5,0,0,1,4.932-4.932,13.486,13.486,0,0,1,12.012-.744,13.633,13.633,0,0,1,4.308,2.88,13.231,13.231,0,0,1,2.88,4.32A13.419,13.419,0,0,1,23.256,29.82a13.467,13.467,0,0,1-10.512,0,13.3,13.3,0,0,1-7.2-7.176A13,13,0,0,1,4.488,17.4Zm2.976,0a10.2,10.2,0,0,0,3.108,7.416,10.135,10.135,0,0,0,7.44,3.108,10.2,10.2,0,0,0,5.268-1.416,10.646,10.646,0,0,0,3.852-3.84,10.453,10.453,0,0,0,0-10.548A10.587,10.587,0,0,0,23.28,8.268a10.507,10.507,0,0,0-10.536,0A10.806,10.806,0,0,0,8.88,12.12,10.161,10.161,0,0,0,7.464,17.4Zm5.868,7.02,4.5-15.732q.018-.18.18-.18t.18.18L22.68,24.42a.286.286,0,0,1-.024.3q-.09.108-.288,0L18.2,23.16a.438.438,0,0,0-.348,0l-4.2,1.56q-.18.108-.252,0A.4.4,0,0,1,13.332,24.42Z" transform="translate(-4.488 -3.864)" fill="#031a29"/>
</svg>
