<svg xmlns="http://www.w3.org/2000/svg" width="30.849" height="23.136" viewBox="0 0 30.849 23.136">
  <path id="Icon_metro-weather3" data-name="Icon metro-weather3" d="M4.6,17.352a4.874,4.874,0,0,1-.1-.964,4.812,4.812,0,0,1,6.654-4.454,7.654,7.654,0,0,1,13.683,0,4.816,4.816,0,0,1,6.557,5.418h1.928a6.43,6.43,0,0,0,.1-.964A6.756,6.756,0,0,0,26.671,9.64a6.686,6.686,0,0,0-.951.068,9.565,9.565,0,0,0-15.449,0,6.686,6.686,0,0,0-.951-.068,6.756,6.756,0,0,0-6.748,6.748,6.6,6.6,0,0,0,.1.964Zm27.86,1.928H3.535a.964.964,0,1,0,0,1.928H32.455a.964.964,0,0,0,0-1.928Zm0,3.856H3.535a.964.964,0,1,0,0,1.928H32.455a.964.964,0,0,0,0-1.928Zm0,3.856H3.535a.964.964,0,1,0,0,1.928H32.455a.964.964,0,0,0,0-1.928Z" transform="translate(-2.571 -5.784)" fill="#47b5ff"/>
</svg>
